<?xml version="1.0" encoding="UTF-8"?>
<svg xmlns="http://www.w3.org/2000/svg" width="240" height="240" viewBox="0 0 240 240">
  <defs>
    <pattern id="dots" x="0" y="0" width="40" height="40" patternUnits="userSpaceOnUse">
      <circle cx="20" cy="20" r="1.8" fill="rgba(255,255,255,0.18)"/>
    </pattern>
    <pattern id="shapes" x="0" y="0" width="120" height="120" patternUnits="userSpaceOnUse">
      <g fill="none" stroke="rgba(255,255,255,0.12)" stroke-width="1.5">
        <!-- CorańŃo -->
        <path d="M30 50 C30 42 36 36 44 36 C50 36 54 40 56 44 C58 40 62 36 68 36 C76 36 82 42 82 50 C82 64 56 80 56 80 C56 80 30 64 30 50 Z" transform="translate(-10,-10) scale(0.6)"/>
        <!-- Casa -->
        <path d="M90 24 L102 14 L114 24 L114 38 L90 38 Z" />
        <path d="M96 38 L96 32 L108 32 L108 38" />
        <!-- Estrela -->
        <path d="M40 90 L43 99 L52 99 L45 105 L48 114 L40 108 L32 114 L35 105 L28 99 L37 99 Z" />
        <!-- CĒrculo decorativo -->
        <circle cx="92" cy="92" r="10"/>
      </g>
    </pattern>
  </defs>
  <rect width="240" height="240" fill="url(#dots)"/>
  <rect width="240" height="240" fill="url(#shapes)"/>
</svg>
